<?xml version="1.0" standalone="no"?>
<!DOCTYPE svg PUBLIC "-//W3C//DTD SVG 20010904//EN"
 "http://www.w3.org/TR/2001/REC-SVG-20010904/DTD/svg10.dtd">
<svg version="1.0" xmlns="http://www.w3.org/2000/svg"
 width="859.000000pt" height="862.000000pt" viewBox="0 0 859.000000 862.000000"
 preserveAspectRatio="xMidYMid meet">
<metadata>
Created by potrace 1.16, written by Peter Selinger 2001-2019
</metadata>
<g transform="translate(0.000000,862.000000) scale(0.100000,-0.100000)"
fill="#000000" stroke="none">
<path d="M0 4310 l0 -4310 2025 0 2024 0 80 82 c215 223 318 417 352 666 17
121 -1 257 -50 387 -11 28 -87 182 -114 230 -48 86 -194 277 -279 368 -21 22
-38 40 -38 41 0 5 -135 141 -172 173 -26 23 -44 44 -41 47 4 3 2 6 -4 6 -5 0
-19 8 -30 18 -80 70 -93 83 -88 91 3 5 -4 7 -15 4 -28 -7 -24 8 6 31 22 15 28
16 36 5 7 -11 11 -11 15 -1 8 20 25 13 18 -8 -8 -24 -2 -25 31 -3 19 12 22 18
12 24 -10 7 -11 12 -1 28 7 11 15 38 19 59 6 38 5 39 -25 45 -17 4 -31 13 -31
21 0 8 -16 33 -35 55 -19 23 -32 48 -29 56 4 9 -3 18 -18 24 -12 5 -38 15 -55
23 -18 7 -33 18 -33 25 0 6 -25 23 -55 37 -55 25 -67 39 -43 50 7 3 2 3 -12 0
-19 -5 -30 0 -55 30 -19 23 -41 38 -60 41 -43 6 -129 36 -187 66 -10 5 -28 9
-40 9 -13 0 -31 7 -41 14 -15 12 -12 13 30 10 45 -3 46 -3 13 5 -19 5 -45 12
-57 16 -17 6 -23 3 -23 -9 0 -13 -11 -16 -55 -16 -40 0 -55 4 -55 14 0 9 10
13 28 12 15 0 28 4 29 9 2 6 -14 11 -35 12 -134 7 -157 11 -160 27 -5 22 -27
14 -25 -9 1 -12 -2 -14 -10 -6 -14 14 -87 15 -87 1 0 -12 -97 -13 -102 -1 -1
5 -25 12 -53 16 -48 6 -49 5 -30 -11 l20 -17 -20 8 c-62 23 -315 65 -404 66
-50 1 -53 2 -26 10 69 22 665 11 665 -12 0 -9 -25 -12 -90 -10 -28 0 -31 -1
-15 -8 19 -8 19 -8 -4 -16 -20 -6 -22 -9 -8 -16 10 -6 39 -1 85 16 80 29 101
30 185 11 234 -54 377 -89 407 -101 19 -7 103 -35 185 -61 83 -27 161 -54 175
-61 14 -7 32 -13 41 -13 8 0 19 -4 25 -8 5 -4 27 -14 49 -21 22 -7 58 -21 80
-31 22 -10 65 -28 95 -40 76 -31 103 -43 193 -84 43 -20 80 -36 83 -36 5 0
212 -97 464 -217 257 -123 301 -144 386 -179 49 -20 107 -44 129 -54 22 -9 56
-23 75 -29 19 -7 44 -17 55 -22 34 -15 263 -78 323 -89 243 -44 488 -37 722
21 25 6 54 15 65 19 11 5 53 21 94 36 229 84 399 242 472 439 27 74 37 87 60
80 11 -4 21 1 28 12 6 10 11 13 11 7 0 -6 22 -12 51 -13 29 -1 66 -8 83 -16
58 -26 168 -55 210 -55 66 0 117 19 156 58 35 35 62 81 40 67 -6 -4 -10 17
-10 54 0 33 -5 63 -11 66 -6 4 -8 14 -5 22 3 8 1 11 -4 8 -5 -3 -26 5 -47 18
-55 34 -90 46 -168 57 -248 35 -652 -25 -883 -131 -35 -16 -67 -29 -72 -29 -5
0 -17 -11 -25 -24 -14 -20 -14 -29 -4 -48 7 -13 17 -26 23 -30 12 -8 59 -1 86
12 17 10 110 36 158 45 43 9 42 -7 -5 -86 -109 -187 -298 -329 -481 -360 -51
-9 -79 -7 -266 21 -67 11 -85 17 -115 45 -20 19 -47 43 -61 55 -61 53 -157 66
-205 29 -22 -18 -29 -20 -36 -8 -5 8 -9 21 -9 30 0 20 -31 111 -58 169 -44 96
-143 158 -232 145 -55 -8 -73 -17 -131 -66 l-47 -38 -5 29 c-11 55 -100 139
-151 144 -13 1 -23 25 -37 91 -21 100 -64 180 -117 215 -55 36 -92 38 -146 6
-38 -22 -162 -156 -196 -212 -8 -13 -20 -22 -26 -20 -8 3 -10 -3 -6 -16 4 -17
2 -19 -19 -13 -13 4 -51 20 -84 36 -109 52 -229 107 -305 139 -41 17 -84 35
-95 40 -120 53 -269 109 -385 146 -30 9 -75 24 -100 32 -25 9 -76 22 -115 29
-38 8 -99 20 -135 27 -36 7 -71 15 -77 19 -5 4 -41 9 -78 12 -37 3 -71 8 -75
10 -4 2 -38 9 -76 16 -170 29 -522 31 -664 4 -52 -9 -115 -21 -140 -24 -25 -4
-65 -16 -89 -28 -24 -12 -49 -19 -57 -16 -20 7 -121 -26 -177 -59 -26 -15 -50
-28 -53 -28 -21 0 -279 -129 -303 -151 -11 -10 -29 -19 -39 -19 -11 0 -37 -13
-58 -29 -22 -17 -50 -39 -64 -49 -14 -10 -45 -30 -70 -43 -25 -14 -61 -39 -80
-57 -78 -72 -91 -81 -103 -76 -8 3 -19 -6 -25 -21 -6 -14 -20 -25 -30 -25 -16
0 -38 -21 -92 -87 -14 -17 -12 -23 8 -24 14 0 14 -2 -3 -9 -12 -4 -26 -15 -33
-23 -14 -17 -82 -32 -122 -28 -40 5 -142 49 -168 74 -27 25 -52 78 -73 152
-20 72 -17 310 5 395 54 206 133 357 245 468 80 79 138 108 215 105 60 -2 116
-18 116 -35 0 -12 89 -50 101 -42 5 3 9 2 9 -3 0 -4 16 -26 35 -48 29 -33 35
-47 35 -87 0 -27 4 -48 10 -48 5 0 53 66 106 147 138 211 236 334 363 455 138
133 191 162 307 166 93 4 141 -12 174 -58 20 -28 39 -130 34 -185 -1 -16 -3
-46 -4 -65 -2 -20 -7 0 -12 45 -5 44 -13 84 -18 89 -5 5 -19 2 -34 -8 -15 -9
-26 -12 -26 -6 0 24 -49 34 -105 20 -30 -7 -55 -17 -55 -22 0 -4 -8 -8 -18 -8
-18 0 -98 -55 -156 -108 -18 -16 -38 -26 -45 -24 -9 3 -11 0 -7 -7 10 -15 -11
-40 -44 -53 -15 -6 -20 -12 -12 -15 8 -3 0 -12 -20 -23 -20 -11 -32 -24 -30
-34 2 -9 -4 -16 -12 -16 -10 0 -12 -7 -8 -22 5 -21 4 -22 -13 -8 -17 14 -18
13 -13 -7 3 -12 1 -25 -6 -28 -8 -3 -8 -7 2 -11 16 -7 16 -34 0 -34 -22 0 -36
-14 -44 -44 -4 -19 -3 -27 3 -23 6 4 8 -3 5 -18 -2 -14 -8 -28 -13 -31 -10 -6
-12 -44 -2 -44 3 0 15 8 25 17 17 15 21 15 29 3 8 -11 9 -7 6 15 -2 17 -2 25
0 20 2 -6 12 -16 23 -23 17 -10 20 -10 20 3 0 18 16 20 26 4 12 -21 208 -4
304 25 98 31 132 58 168 136 19 40 26 50 29 35 13 -70 5 -65 101 -60 84 4 224
30 327 61 30 9 125 19 235 25 102 5 223 16 270 24 121 23 290 78 425 140 78
36 163 65 189 65 13 0 73 -51 160 -135 77 -74 145 -135 153 -135 7 0 13 -4 13
-10 0 -5 17 -20 38 -33 62 -39 233 -127 248 -127 7 0 19 -8 26 -18 7 -11 27
-22 43 -26 40 -10 211 -36 256 -40 19 -1 41 -6 49 -11 14 -9 66 -9 170 0 39 3
48 2 30 -4 -21 -8 -19 -9 18 -8 29 0 52 -7 72 -21 16 -12 42 -22 58 -22 29 0
144 -37 172 -55 8 -6 24 -10 35 -10 15 0 20 -7 21 -26 1 -34 13 -52 30 -45 9
4 14 -2 14 -16 0 -23 17 -81 31 -110 5 -10 9 -24 9 -32 0 -30 72 -154 115
-199 90 -93 184 -136 317 -144 114 -7 210 13 322 68 25 12 43 16 49 10 6 -6
20 -2 38 12 22 15 26 23 17 30 -9 5 -6 6 8 3 11 -4 29 1 40 9 10 8 14 15 7 15
-7 0 -13 5 -13 11 0 6 9 9 19 6 11 -2 34 4 51 15 18 10 38 17 45 14 7 -2 12 3
11 12 0 10 6 17 16 17 27 0 80 45 74 62 -4 11 -1 13 14 8 11 -4 20 -2 20 4 0
6 -4 11 -10 11 -5 0 -10 5 -10 10 0 15 16 12 34 -5 14 -14 17 -13 30 12 20 35
52 73 63 73 13 1 45 49 38 60 -3 6 1 10 9 10 9 0 28 22 44 50 15 27 33 50 40
50 10 0 12 11 6 47 -6 43 -5 48 21 69 24 19 27 25 16 38 -11 13 -11 22 3 50 9
18 27 41 40 49 14 10 26 29 29 49 2 18 11 57 19 86 9 29 11 55 7 58 -5 3 -10
-5 -10 -18 -1 -17 -2 -19 -6 -5 -3 10 5 36 16 58 12 21 24 64 27 94 4 30 11
55 16 55 7 0 8 56 6 148 -4 116 -10 161 -27 214 -98 296 -396 419 -735 304
-65 -22 -183 -82 -239 -122 -26 -19 -50 -34 -54 -34 -7 0 72 75 102 96 17 12
17 14 2 14 -9 0 -26 -5 -37 -12 -31 -20 -35 0 -5 27 25 24 26 27 10 39 -13 9
-15 15 -7 20 7 4 12 14 12 22 0 8 -4 12 -10 9 -9 -5 -16 70 -11 111 1 6 -15
35 -34 64 -19 29 -35 57 -35 63 0 6 -6 3 -12 -6 -12 -15 -15 -12 -32 23 -11
22 -23 40 -28 40 -4 0 -8 5 -8 11 0 15 -23 33 -85 66 -42 23 -63 27 -130 28
-44 0 -96 -4 -115 -9 l-35 -8 40 42 c81 84 209 147 348 171 101 17 137 9 186
-41 45 -46 58 -77 42 -93 -17 -17 -14 -57 4 -57 18 0 18 -60 1 -72 -7 -5 -3
-13 9 -23 19 -16 19 -16 -3 -5 -13 6 -31 10 -40 8 -14 -3 -9 -11 21 -41 43
-42 126 -86 212 -113 95 -29 305 -25 530 10 210 33 331 32 429 -3 69 -24 146
-71 146 -88 0 -7 6 -16 13 -20 6 -4 21 -18 31 -31 17 -19 17 -22 3 -16 -9 3
-17 10 -17 16 0 5 -4 7 -9 4 -14 -9 0 -48 15 -42 10 4 11 -1 4 -19 -6 -15 -6
-25 0 -25 15 0 22 -38 11 -59 -8 -14 -8 -22 0 -27 9 -5 10 -36 5 -108 -11
-168 -18 -211 -32 -219 -8 -5 -14 -24 -14 -48 0 -22 -7 -51 -16 -65 -15 -22
-28 -67 -38 -131 -2 -13 -9 -30 -17 -39 -7 -9 -12 -29 -11 -44 2 -15 -3 -34
-12 -42 -8 -8 -19 -33 -25 -55 -6 -22 -20 -48 -31 -58 -11 -10 -20 -24 -20
-30 0 -7 -7 -18 -15 -25 -25 -21 -93 -127 -106 -167 -16 -47 -17 -171 -1 -199
20 -38 66 -84 83 -84 9 0 22 -7 29 -15 7 -8 22 -15 34 -15 11 0 32 -9 46 -20
29 -23 46 -25 53 -7 4 9 8 8 16 -3 8 -11 32 -15 93 -16 91 -2 188 -22 188 -40
0 -7 20 -18 44 -25 29 -8 42 -17 39 -26 -3 -7 0 -13 7 -13 14 0 78 -47 102
-75 9 -11 20 -32 23 -47 3 -14 13 -29 21 -32 17 -6 20 -121 4 -131 -7 -4 -7
-12 0 -25 5 -10 10 -31 10 -46 0 -15 8 -33 18 -40 14 -11 15 -15 3 -23 -11 -7
-12 -25 -7 -82 3 -41 10 -87 15 -104 5 -19 4 -39 -4 -55 -6 -14 -17 -58 -24
-97 -10 -58 -16 -73 -30 -73 -13 0 -23 -17 -36 -62 -23 -79 -47 -128 -74 -152
-12 -11 -21 -25 -21 -33 0 -7 -7 -16 -15 -19 -8 -4 -15 -13 -15 -20 0 -8 -11
-19 -25 -24 -19 -7 -25 -17 -26 -42 -2 -64 -2 -63 -51 -66 -54 -3 -64 -19 -18
-29 48 -9 46 -23 -4 -23 -55 0 -69 -16 -24 -28 l33 -8 -33 -16 c-29 -15 -33
-15 -42 0 -9 16 -9 16 -10 0 0 -9 -10 -24 -22 -32 -12 -9 -17 -16 -10 -16 6 0
12 -6 12 -13 0 -14 -142 -68 -260 -98 -94 -24 -324 -43 -350 -29 -13 7 -21 7
-25 -1 -20 -31 -230 40 -375 128 -51 30 -56 32 -67 16 -7 -9 -13 -24 -13 -34
0 -16 114 -131 141 -142 12 -4 11 -7 -1 -16 -8 -6 -22 -11 -30 -11 -13 0 -13
1 0 10 8 5 11 12 8 15 -4 4 -16 0 -28 -8 -17 -12 -18 -15 -5 -20 19 -8 20 -37
0 -37 -8 0 -17 -14 -21 -35 -3 -20 -14 -41 -24 -48 -16 -11 -18 -34 -21 -192
-3 -148 -1 -186 12 -215 10 -22 17 -69 18 -125 5 -174 8 -217 18 -224 11 -7
43 -74 43 -90 0 -6 -11 -11 -24 -11 -31 0 -43 -18 -23 -33 28 -22 59 -88 47
-102 -8 -9 -6 -14 5 -18 8 -4 12 -13 9 -21 -3 -8 -1 -17 5 -21 19 -11 12 -23
-21 -35 l-33 -13 40 -10 c23 -6 258 -11 565 -14 l525 -3 -39 35 c-21 19 -42
35 -47 35 -5 0 -9 4 -9 10 0 9 30 2 40 -10 3 -3 24 -20 46 -38 l42 -32 551 0
551 0 0 4310 0 4310 -3525 0 c-2196 0 -3525 -4 -3525 -9 0 -6 4 -13 10 -16 5
-3 16 -27 24 -53 8 -26 27 -78 41 -117 14 -38 36 -97 47 -130 11 -33 29 -78
39 -99 10 -22 17 -41 16 -43 -2 -1 -31 -21 -65 -43 l-63 -40 -10 28 c-38 104
-72 194 -150 390 l-53 132 -683 0 -683 0 0 -4310z m1850 3775 c0 -9 17 -33 38
-54 62 -63 97 -104 97 -113 0 -5 6 -13 14 -17 8 -5 11 -16 8 -25 -5 -12 0 -16
23 -16 38 0 39 -16 3 -24 -119 -29 -373 -166 -461 -250 l-33 -31 -19 25 c-31
42 -45 130 -31 211 14 89 37 133 98 193 54 54 85 73 158 98 65 22 105 23 105
3z m284 -370 c-5 -11 1 -15 25 -15 17 0 39 -4 49 -9 9 -5 43 -19 75 -32 38
-14 63 -30 69 -45 6 -13 24 -28 40 -33 15 -6 31 -17 34 -26 3 -8 11 -15 17
-15 6 0 20 -9 32 -21 19 -20 118 -87 174 -119 14 -8 49 -29 76 -46 28 -17 64
-39 80 -47 17 -9 27 -16 24 -17 -10 0 -348 -86 -414 -105 -101 -28 -288 -93
-352 -121 -17 -8 -34 -14 -37 -14 -18 0 -309 -141 -314 -152 -2 -5 -8 -8 -14
-8 -34 0 -43 -72 -14 -125 9 -16 16 -36 16 -42 0 -7 2 -13 5 -13 3 0 54 24
114 54 110 56 372 169 477 206 33 12 68 25 79 30 28 13 263 87 332 106 154 41
208 53 333 77 246 46 273 49 480 54 132 4 232 1 280 -6 287 -44 491 -152 558
-294 26 -55 29 -75 8 -58 -11 9 -15 9 -19 -1 -3 -9 -8 -10 -16 -2 -9 8 -8 14
4 24 8 7 15 16 15 21 0 5 -11 -1 -25 -13 -14 -12 -25 -28 -25 -35 0 -17 -20
-17 -20 0 -1 6 -7 -1 -15 -18 -7 -16 -29 -46 -48 -67 -28 -30 -34 -43 -32 -75
3 -45 -41 -239 -61 -268 -8 -11 -14 -30 -14 -42 0 -14 -6 -23 -15 -23 -8 0
-15 -3 -15 -8 0 -8 -47 -67 -86 -107 -11 -12 -18 -27 -16 -33 2 -7 -2 -12 -9
-12 -7 0 -49 -37 -93 -83 -109 -111 -238 -217 -265 -217 -5 0 -11 -7 -15 -15
-3 -8 -12 -15 -19 -15 -8 0 -20 -7 -27 -15 -7 -8 -18 -15 -26 -15 -7 0 -32
-13 -56 -29 -24 -16 -83 -48 -133 -71 -49 -23 -97 -48 -105 -55 -8 -7 -25 -16
-38 -20 -12 -3 -52 -24 -89 -45 -36 -22 -80 -42 -97 -46 -17 -3 -33 -9 -36
-13 -3 -3 -25 -13 -50 -22 -87 -32 -115 -44 -121 -52 -3 -4 -10 -7 -15 -5 -8
2 -61 -16 -149 -52 -48 -20 -62 -24 -90 -27 -16 -1 -39 -7 -50 -12 -11 -5 -58
-18 -105 -30 -47 -13 -93 -27 -102 -32 -10 -5 -25 -9 -33 -9 -8 0 -15 -5 -15
-11 0 -8 -4 -8 -12 -2 -9 7 -48 4 -118 -9 -58 -11 -132 -23 -165 -28 -33 -5
-70 -12 -82 -14 -13 -3 -25 -1 -28 5 -4 5 -15 5 -28 -2 -11 -7 -75 -13 -142
-15 -66 -2 -127 -5 -135 -6 -29 -5 -160 13 -160 22 0 10 12 12 160 30 52 6
120 16 150 21 113 20 316 59 350 68 19 6 89 24 155 41 124 33 433 131 495 157
19 8 44 19 55 23 465 188 771 355 1040 569 231 183 372 393 350 520 -30 174
-222 265 -560 263 -182 0 -317 -15 -570 -62 -236 -44 -693 -193 -945 -308
-161 -73 -205 -94 -229 -111 -14 -10 -36 -21 -48 -25 -73 -23 -402 -227 -536
-333 -172 -135 -300 -274 -357 -387 -112 -224 -33 -363 249 -436 54 -14 48
-21 -21 -25 -31 -1 -43 0 -28 4 17 5 21 9 12 15 -17 10 -72 -15 -69 -33 1 -8
-4 -16 -11 -18 -8 -3 -10 1 -5 12 5 15 3 16 -15 6 -11 -6 -30 -11 -41 -11 -12
0 -21 -4 -21 -10 0 -5 15 -10 33 -10 l32 -1 -30 -13 c-29 -13 -26 -14 43 -14
39 0 78 -4 85 -10 7 -6 40 -13 72 -15 33 -2 13 -3 -45 -2 -255 5 -448 73 -529
185 -130 180 31 514 408 848 41 37 85 75 96 85 60 55 449 321 509 348 14 7 26
16 26 21 0 19 -64 88 -81 88 -10 0 -40 -13 -66 -28 -61 -35 -119 -59 -162 -66
-35 -6 -126 -63 -226 -141 -32 -25 -60 -43 -62 -41 -3 2 5 22 16 44 34 66 96
236 115 315 6 26 5 27 -31 27 -24 0 -45 -7 -60 -22 -18 -17 -23 -18 -23 -6 0
9 7 21 15 28 8 7 15 17 15 22 0 12 32 81 40 88 4 3 10 14 15 25 4 11 9 22 10
25 2 3 6 15 10 28 4 12 11 22 16 22 5 0 9 6 9 14 0 7 7 19 15 26 8 7 15 23 15
35 0 12 7 28 15 35 8 7 15 20 15 28 0 9 18 35 40 57 39 40 74 92 86 128 4 9
11 18 18 18 6 1 21 3 34 4 13 1 28 7 35 14 16 16 30 14 23 -5 -9 -24 47 19 69
53 27 41 96 104 128 116 9 3 17 11 17 16 0 5 8 7 18 5 9 -3 68 16 131 41 133
54 167 63 243 64 47 1 56 -2 52 -14z m2350 -863 c3 -5 58 -12 123 -16 64 -3
122 -11 127 -16 6 -6 27 -10 47 -10 21 0 40 -4 43 -9 3 -5 31 -12 62 -16 32
-4 64 -10 73 -15 41 -20 70 -29 111 -36 25 -3 57 -15 72 -25 14 -11 34 -19 45
-19 10 0 27 -7 37 -15 11 -8 27 -15 36 -15 21 0 70 -23 70 -32 0 -5 4 -8 10
-8 17 0 90 -34 90 -42 0 -5 5 -8 11 -8 12 0 81 -31 89 -39 8 -9 41 -29 80 -47
19 -10 54 -32 77 -51 23 -18 45 -33 50 -33 5 0 20 -11 33 -25 13 -14 28 -25
34 -25 6 0 48 -34 93 -75 45 -41 85 -75 89 -75 11 0 184 -172 184 -183 0 -5
34 -45 75 -90 41 -45 75 -87 75 -93 0 -6 11 -21 25 -34 14 -13 25 -28 25 -33
0 -5 11 -23 25 -41 39 -49 40 -49 60 -89 11 -22 24 -47 30 -58 5 -10 13 -19
17 -19 5 0 8 -4 8 -10 0 -17 34 -90 42 -90 5 0 8 -4 8 -10 0 -16 34 -90 42
-90 4 0 10 -17 14 -37 4 -21 15 -50 25 -65 11 -14 19 -34 19 -45 0 -10 7 -27
15 -37 8 -11 15 -30 15 -42 0 -13 5 -26 10 -29 6 -3 10 -19 10 -35 0 -16 4
-32 10 -35 5 -3 12 -28 16 -56 4 -27 11 -52 15 -55 5 -3 9 -18 9 -34 0 -16 5
-32 10 -35 6 -3 10 -22 10 -41 0 -34 0 -34 -45 -34 -25 0 -45 -4 -45 -10 0 -5
-16 -10 -35 -10 -19 0 -35 -4 -35 -9 0 -5 -32 -12 -70 -16 -39 -4 -73 -11 -76
-16 -3 -5 -25 -9 -49 -9 -24 0 -47 -4 -50 -10 -3 -5 -46 -10 -96 -10 l-89 0 0
44 c0 25 5 48 10 51 13 8 13 129 1 153 -6 9 -13 30 -16 45 -7 33 -96 127 -120
127 -8 0 -23 4 -33 9 -84 42 -335 43 -437 1 -11 -5 -31 -12 -45 -16 -110 -30
-243 -133 -334 -256 -15 -21 -34 -38 -42 -38 -7 0 -14 -4 -14 -8 0 -5 -16 -17
-35 -28 -19 -10 -35 -22 -35 -26 0 -5 -6 -8 -12 -8 -16 0 -258 -241 -258 -257
0 -6 -3 -13 -8 -15 -19 -8 -136 -169 -159 -218 -3 -8 -9 -17 -13 -20 -17 -14
-90 -171 -90 -194 0 -14 -3 -26 -8 -26 -7 0 -22 -63 -54 -215 -10 -49 -6 -239
7 -320 l7 -41 -74 4 c-40 2 -81 8 -90 13 -9 5 -37 9 -62 9 -25 0 -47 4 -50 9
-3 4 -25 11 -50 14 -46 7 -118 42 -175 86 -18 14 -40 31 -49 36 -8 6 -52 45
-96 87 -45 42 -94 87 -111 99 -16 13 -36 31 -43 41 -29 39 -149 67 -167 38 -3
-5 -13 -10 -22 -10 -8 0 -31 -7 -51 -16 -84 -37 -100 -44 -106 -44 -3 0 -38
-16 -77 -35 -40 -19 -83 -35 -95 -35 -13 0 -25 -4 -28 -9 -3 -5 -26 -12 -51
-15 -24 -4 -47 -11 -50 -17 -4 -5 -25 -9 -49 -9 -23 0 -47 -5 -53 -11 -10 -10
-511 -6 -710 7 -106 6 -101 -1 -78 109 17 81 20 165 5 165 -5 0 -9 3 -8 8 5
19 -15 70 -32 82 -11 8 -20 20 -20 27 0 18 -59 72 -87 79 -13 4 -23 10 -23 15
0 5 -11 9 -24 9 -14 0 -28 5 -31 10 -3 6 -28 10 -55 10 -27 0 -52 -4 -55 -10
-3 -5 -22 -10 -41 -10 -19 0 -34 -4 -34 -9 0 -5 -12 -12 -26 -15 -14 -4 -35
-15 -46 -25 -11 -11 -29 -22 -41 -24 -16 -4 -8 7 26 38 l47 43 0 166 c0 90 4
167 8 170 5 3 12 58 16 123 3 64 11 122 16 127 6 6 10 27 10 47 0 21 4 40 9
43 5 3 12 33 16 66 4 33 11 63 16 66 5 3 9 16 9 30 0 13 4 24 9 24 5 0 11 14
15 30 4 24 11 30 31 30 14 0 25 4 25 9 0 4 31 12 70 15 38 4 72 11 75 17 4 5
19 9 36 9 16 0 29 4 29 9 0 5 29 12 65 16 36 3 67 11 70 16 4 5 19 9 35 9 16
0 32 5 35 10 3 6 19 10 35 10 16 0 31 4 35 9 3 6 26 13 50 17 25 3 45 10 45
15 0 5 11 9 24 9 14 0 27 4 30 9 3 4 28 11 55 15 28 4 53 11 56 16 3 6 17 10
31 10 13 0 24 5 24 10 0 6 10 10 23 10 12 0 35 7 51 15 15 8 39 15 51 15 13 0
25 3 27 8 2 4 28 15 58 26 52 17 144 56 182 77 10 5 25 9 33 9 8 0 15 5 15 10
0 6 5 10 11 10 14 0 120 46 159 69 8 5 32 17 52 25 20 9 40 21 43 26 3 6 14
10 24 10 10 0 24 7 31 14 6 8 32 25 56 36 24 12 44 26 44 31 0 5 6 9 14 9 8 0
21 6 28 13 7 6 39 25 71 41 31 15 57 31 57 35 0 4 16 15 35 25 19 11 35 23 35
28 0 4 6 8 14 8 8 0 16 3 18 8 2 4 23 23 48 42 25 19 67 56 93 82 26 27 52 48
58 48 14 0 219 210 219 224 0 6 9 18 21 26 11 8 28 31 37 50 9 19 27 46 39 60
13 14 23 33 23 42 0 10 5 18 10 18 6 0 10 9 10 20 0 11 4 20 10 20 5 0 13 18
16 40 4 22 10 40 15 40 5 0 9 11 9 24 0 14 5 28 10 31 6 3 10 50 10 106 0 88
8 117 24 91z m-884 -77 c16 -14 21 -14 56 0 50 19 98 8 102 -24 3 -21 7 -22
55 -17 l52 7 -44 -22 -45 -21 25 -19 24 -19 -22 0 c-27 0 -29 -8 -7 -24 15
-12 10 -46 -7 -46 -5 0 -9 -6 -9 -13 0 -8 -10 -22 -22 -33 -28 -24 -124 -74
-144 -74 -8 0 -14 -4 -14 -10 0 -5 -11 -10 -24 -10 -14 0 -28 -4 -31 -10 -8
-13 -66 -13 -99 0 -16 6 -26 17 -26 30 0 12 -7 20 -16 20 -11 0 -14 -5 -10
-16 3 -9 6 -20 6 -25 0 -5 7 -9 15 -9 8 0 15 -4 15 -10 0 -5 18 -13 40 -16 54
-9 59 -21 10 -29 -22 -4 -38 -12 -37 -18 1 -8 -10 -11 -30 -11 -22 1 -33 -3
-33 -12 0 -8 6 -14 13 -14 25 -1 -40 -29 -83 -36 -50 -8 -98 -32 -114 -57 -8
-13 -6 -20 9 -32 19 -15 18 -15 -17 -9 -30 5 -39 3 -44 -10 -4 -11 -19 -16
-49 -16 -24 0 -47 -5 -50 -10 -3 -6 -17 -7 -30 -4 -17 4 -31 -1 -51 -19 -26
-25 -26 -25 -5 -32 15 -4 20 -12 17 -22 -3 -8 -6 -19 -6 -23 0 -12 -40 -33
-47 -26 -3 3 0 12 7 21 7 9 8 15 2 15 -6 0 -13 -6 -15 -12 -4 -10 -8 -10 -15
1 -10 13 -18 12 -52 -7 -51 -30 -61 -32 -100 -23 -24 5 -42 5 -46 0 -3 -5 2
-9 10 -9 23 0 20 -14 -10 -44 -29 -28 -41 -31 -64 -16 -13 9 -13 11 0 19 24
16 2 25 -25 11 -34 -18 -45 -3 -15 20 32 25 7 27 -40 3 l-33 -16 46 -24 c26
-13 47 -28 47 -33 0 -15 -11 -12 -68 15 -60 29 -69 31 -52 10 7 -8 19 -15 26
-15 8 0 14 -4 14 -9 0 -18 -27 -29 -88 -36 -34 -4 -65 -11 -68 -16 -3 -5 -20
-9 -39 -9 -46 0 -71 -10 -53 -21 9 -6 4 -9 -14 -9 -38 0 -43 3 -41 20 1 13 0
13 -10 0 -8 -10 -27 -14 -59 -13 -44 2 -47 1 -53 -27 -5 -24 -14 -30 -55 -41
-43 -11 -48 -15 -39 -31 12 -23 -12 -26 -31 -3 -9 11 -27 13 -78 9 -37 -3 -69
-10 -71 -15 -6 -19 -47 -27 -90 -19 -31 5 -46 4 -56 -6 -7 -8 -16 -14 -20 -14
-3 0 -17 -12 -30 -27 -13 -16 -25 -23 -25 -17 0 29 -45 23 -121 -16 -24 -12
-124 -23 -148 -15 -12 3 -21 15 -21 26 0 17 -11 24 -34 20 -5 -1 -18 6 -29 16
-20 18 -20 17 -13 -9 5 -24 3 -28 -16 -28 -13 0 -30 -4 -38 -10 -9 -6 -19 -5
-28 2 -10 9 -16 8 -22 -2 -5 -8 -12 -12 -15 -8 -10 9 77 110 164 192 25 22 52
48 61 56 25 23 88 70 95 70 3 0 16 9 28 21 31 29 104 79 115 79 6 0 12 4 14 8
6 17 121 83 134 78 8 -3 14 1 14 9 0 18 5 18 30 5 39 -21 231 42 274 89 11 12
25 21 33 21 25 0 14 38 -14 48 l-28 10 30 11 c16 7 61 27 100 45 38 18 88 39
110 46 22 7 66 26 97 41 32 16 66 29 77 29 11 0 23 5 27 11 3 6 17 8 31 4 16
-4 22 -2 18 5 -6 10 44 35 53 26 2 -3 14 1 26 9 32 23 42 18 14 -8 -42 -39
-42 -55 0 -62 68 -11 184 26 268 87 46 33 55 54 28 65 -14 5 -12 8 7 19 13 7
35 13 48 14 14 0 38 4 55 9 138 41 140 41 314 66 60 9 110 22 119 30 19 20
101 20 123 0z m1869 -1995 c68 -13 106 -41 132 -97 42 -92 45 -195 14 -393
-26 -159 -50 -233 -99 -299 -25 -34 -68 -102 -97 -152 -38 -68 -65 -101 -106
-134 -58 -45 -211 -130 -219 -122 -11 11 20 98 78 216 63 132 65 147 27 194
-24 32 -45 35 -54 8 -7 -23 -70 -55 -96 -48 -28 8 -70 -62 -109 -183 -41 -124
-47 -189 -25 -256 6 -18 -1 -24 -42 -42 -66 -28 -163 -44 -253 -40 l-75 3 -3
110 c-4 152 19 288 75 455 40 119 139 313 203 399 158 209 402 371 586 390 6
0 35 -3 63 -9z m936 -465 c142 -42 217 -121 267 -280 20 -61 22 -91 22 -230
-1 -139 -5 -173 -28 -260 -14 -55 -31 -111 -37 -125 -96 -218 -246 -422 -386
-527 -21 -15 -40 -30 -43 -33 -21 -24 -179 -104 -260 -132 -320 -112 -579 9
-655 306 -25 101 -28 174 -11 282 39 248 149 455 350 662 172 178 356 292 538
337 73 18 183 18 243 0z m-5063 -222 c61 -23 66 -31 16 -26 -37 4 -50 0 -96
-32 -110 -75 -331 -283 -332 -311 0 -7 -7 -15 -16 -18 -8 -3 -13 -10 -9 -15 3
-6 -2 -14 -12 -20 -25 -13 -142 -35 -149 -28 -3 3 6 31 20 63 81 176 275 352
430 390 71 17 99 17 148 -3z m3316 -1249 c31 -21 61 -84 78 -163 18 -84 31
-395 17 -404 -7 -5 -411 183 -452 210 -8 6 30 77 84 158 81 121 183 215 235
215 9 0 26 -7 38 -16z m-2388 -63 c0 -5 29 -12 65 -16 36 -3 65 -11 65 -16 0
-5 16 -9 35 -9 19 0 35 -4 35 -9 0 -6 20 -13 45 -17 25 -3 45 -10 45 -15 0 -5
11 -9 25 -9 14 0 25 -4 25 -9 0 -5 18 -11 40 -15 22 -3 40 -11 40 -16 0 -6 6
-10 14 -10 7 0 19 -7 26 -15 7 -8 23 -15 36 -15 13 0 24 -4 24 -10 0 -5 9 -10
20 -10 11 0 20 -4 20 -10 0 -5 5 -10 11 -10 12 0 81 -31 89 -39 7 -9 41 -28
80 -48 19 -9 39 -23 43 -30 4 -7 17 -13 27 -13 11 0 20 -4 20 -10 0 -5 7 -10
15 -10 8 0 15 -4 15 -10 0 -5 11 -12 25 -16 14 -3 25 -10 25 -15 0 -5 6 -9 13
-9 7 0 30 -16 50 -35 20 -19 40 -35 43 -35 4 0 23 -15 44 -32 58 -52 80 -68
88 -68 4 0 31 -22 59 -50 28 -27 55 -50 59 -50 4 0 22 -16 41 -35 19 -19 38
-35 42 -35 5 0 63 -54 130 -121 l122 -121 -68 7 c-37 4 -72 11 -77 16 -6 5
-22 9 -37 9 -15 0 -30 4 -33 9 -3 4 -28 11 -55 15 -28 4 -53 11 -56 16 -3 6
-19 10 -35 10 -16 0 -32 5 -35 10 -3 6 -16 10 -29 10 -12 0 -31 7 -42 15 -10
8 -27 15 -37 15 -11 0 -31 8 -45 19 -15 10 -44 21 -64 25 -21 4 -38 10 -38 14
0 8 -74 42 -90 42 -6 0 -10 3 -10 8 0 8 -73 42 -90 42 -6 0 -10 3 -10 8 0 4
-9 12 -19 17 -11 6 -36 19 -58 30 -40 20 -40 21 -89 60 -18 14 -36 25 -41 25
-5 0 -20 11 -33 25 -13 14 -28 25 -34 25 -6 0 -48 34 -93 75 -45 41 -85 75
-90 75 -11 0 -183 173 -183 184 0 4 -34 44 -75 89 -78 85 -89 107 -55 107 11
0 20 -4 20 -9z m2983 -325 c81 -34 126 -135 162 -365 22 -139 25 -131 -40
-109 -95 32 -435 183 -435 193 0 12 58 125 82 162 76 113 153 153 231 119z"/>
<path d="M5965 5680 c-11 -5 -37 -9 -57 -9 -20 -1 -40 -5 -43 -11 -3 -5 -15
-10 -26 -10 -25 0 -153 -50 -157 -62 -2 -4 -8 -8 -13 -8 -20 0 -145 -89 -189
-134 -39 -40 -45 -52 -44 -87 2 -48 35 -89 73 -89 17 0 45 18 78 48 72 64 104
88 133 97 14 4 32 16 40 25 8 10 35 21 60 25 25 4 48 12 52 19 5 7 89 11 270
11 l263 0 3 39 c5 57 -5 86 -28 86 -11 0 -20 4 -20 10 0 5 -18 13 -40 16 -22
4 -40 10 -40 15 0 5 -15 9 -34 9 -19 0 -38 5 -41 10 -8 12 -212 12 -240 0z"/>
<path d="M3655 6633 c-11 -3 -24 -9 -29 -14 -6 -5 -18 -9 -28 -9 -26 0 -114
-49 -145 -82 -22 -23 -24 -30 -13 -43 18 -22 66 -19 155 10 125 41 221 119
169 139 -18 7 -79 6 -109 -1z"/>
<path d="M2665 6239 c-58 -9 -96 -20 -143 -42 -17 -8 -28 -8 -43 2 -22 13 -49
0 -49 -23 0 -6 4 -6 9 2 5 8 17 12 27 10 15 -3 8 -10 -29 -32 -26 -15 -44 -32
-41 -37 3 -5 -2 -12 -11 -15 -14 -6 -13 -9 6 -22 49 -34 230 20 319 96 29 25
32 32 21 45 -10 13 -8 16 16 20 25 4 25 4 3 4 -14 0 -52 -3 -85 -8z"/>
<path d="M1505 5804 c-33 -14 -68 -27 -77 -30 -10 -4 -18 -11 -18 -16 0 -6 -9
-8 -20 -5 -13 3 -18 1 -13 -6 4 -7 0 -8 -11 -4 -10 4 -23 7 -29 7 -8 0 -7 4 1
12 7 7 12 17 12 23 0 5 -7 2 -15 -8 -7 -11 -11 -25 -8 -33 6 -16 -13 -19 -22
-4 -9 14 -28 12 -22 -2 2 -7 9 -12 14 -11 6 1 16 -8 23 -21 20 -38 51 -47 117
-34 100 19 253 100 253 134 0 32 -103 31 -185 -2z"/>
<path d="M6076 3713 c-10 -39 -43 -72 -86 -83 -32 -9 -41 -18 -63 -68 -52
-119 -104 -315 -93 -357 12 -46 53 -75 105 -75 76 1 100 31 156 192 23 68 56
163 74 213 36 99 36 138 -2 173 -13 12 -37 24 -54 28 -27 5 -31 3 -37 -23z"/>
<path d="M4785 630 c-27 -4 -70 -13 -95 -20 -46 -12 -153 -60 -147 -66 1 -2
34 9 72 23 63 24 84 27 205 27 151 1 195 -9 310 -71 168 -91 299 -263 346
-456 16 -64 18 -67 47 -67 27 0 29 2 24 33 -10 61 -27 117 -57 182 -16 36 -30
70 -30 75 0 6 -5 10 -10 10 -6 0 -14 8 -17 17 -7 17 -31 48 -88 108 -44 47
-151 123 -214 151 -103 47 -246 70 -346 54z"/>
</g>
</svg>
