<?xml version="1.0" standalone="no"?>
<!DOCTYPE svg PUBLIC "-//W3C//DTD SVG 20010904//EN"
 "http://www.w3.org/TR/2001/REC-SVG-20010904/DTD/svg10.dtd">
<svg version="1.0" xmlns="http://www.w3.org/2000/svg"
 width="1200.000000pt" height="1200.000000pt" viewBox="0 0 1200.000000 1200.000000"
 preserveAspectRatio="xMidYMid meet">

<g transform="translate(0.000000,1200.000000) scale(0.100000,-0.100000)"
fill="#000000" stroke="none">
<path d="M5720 11754 c-135 -22 -161 -27 -166 -35 -3 -5 -12 -9 -21 -9 -23 0
-140 -59 -210 -106 -107 -73 -253 -236 -253 -284 0 -10 11 -29 25 -44 34 -37
98 -37 128 1 171 208 327 284 618 302 121 7 133 9 150 30 42 51 9 112 -68 130
-57 12 -168 21 -203 15z"/>
<path d="M7220 11478 c-19 -10 -26 -23 -28 -53 -5 -65 11 -76 106 -80 148 -6
243 -82 300 -240 70 -197 47 -543 -48 -730 -25 -49 -25 -66 1 -99 15 -19 29
-26 57 -26 31 0 44 8 87 53 68 73 102 158 123 311 14 110 14 130 -2 268 -10
87 -27 183 -42 230 -50 158 -150 285 -271 344 -50 25 -72 29 -158 32 -69 2
-108 -1 -125 -10z"/>
<path d="M5322 11135 c-176 -46 -321 -146 -411 -285 -22 -34 -57 -74 -78 -89
-183 -134 -463 -551 -545 -811 -21 -67 -23 -94 -23 -260 0 -148 4 -196 18
-239 9 -30 17 -61 17 -68 0 -18 -131 -17 -272 2 -150 20 -233 64 -438 234 -92
75 -167 121 -200 121 -30 0 -116 -38 -220 -96 -58 -33 -139 -74 -180 -93 -41
-18 -84 -37 -95 -42 -40 -17 -222 -58 -310 -68 -49 -7 -207 -14 -349 -18
l-259 -6 7 24 c14 51 26 175 20 209 -15 79 -84 160 -183 211 -33 17 -62 23
-111 23 -91 1 -187 -46 -290 -143 -41 -39 -76 -71 -77 -71 -2 0 -3 13 -3 30 0
38 -44 89 -105 119 -41 21 -58 23 -138 19 -82 -3 -101 -8 -167 -41 -41 -20
-88 -49 -105 -63 -16 -14 -46 -40 -66 -58 -47 -41 -125 -144 -170 -226 -39
-70 -89 -205 -89 -239 0 -11 -24 -55 -54 -99 -88 -128 -139 -241 -178 -397
-20 -79 -23 -114 -23 -280 1 -178 3 -196 28 -284 38 -129 64 -178 126 -238 45
-43 83 -55 163 -50 191 11 343 95 573 317 177 171 268 241 401 308 118 60 164
67 429 66 232 0 245 -1 375 -31 178 -41 305 -80 425 -133 28 -12 66 -28 85
-37 515 -224 1164 -738 1414 -1117 43 -67 49 -86 23 -86 -12 0 -918 -322 -974
-346 -17 -8 -36 -14 -42 -14 -7 0 -38 -11 -71 -25 -85 -36 -91 -34 -118 33
-24 60 -55 102 -90 121 -36 19 -102 13 -147 -14 -44 -25 -108 -110 -120 -158
l-7 -27 -51 46 c-58 52 -85 65 -140 66 -73 1 -137 -69 -182 -199 l-18 -51 -38
25 c-82 54 -173 36 -239 -47 -35 -44 -53 -95 -65 -177 l-7 -52 -54 -21 c-30
-11 -60 -20 -67 -20 -7 0 -17 -4 -23 -9 -5 -5 -31 -16 -59 -24 -47 -15 -171
-58 -440 -155 -60 -22 -117 -42 -125 -46 -8 -3 -98 -35 -200 -70 -102 -35
-243 -85 -315 -111 -71 -26 -148 -53 -170 -60 -120 -38 -174 -117 -152 -223
12 -59 70 -117 129 -129 47 -10 113 -1 168 21 19 8 134 49 255 91 121 43 234
83 250 90 17 7 46 18 65 23 32 10 142 48 425 150 61 22 117 42 125 46 8 3 72
26 142 49 l126 44 17 -37 c13 -29 15 -42 6 -59 -19 -35 -59 -202 -70 -291 -21
-161 -11 -429 20 -565 59 -262 123 -396 248 -528 74 -78 214 -163 300 -182 17
-4 31 -10 31 -15 0 -5 -23 -48 -51 -97 -52 -88 -199 -376 -199 -389 0 -3 -7
-20 -15 -37 -52 -113 -119 -318 -155 -471 -18 -78 -20 -80 -107 -169 -138
-140 -145 -147 -214 -232 -187 -228 -290 -437 -321 -648 -30 -209 60 -450 224
-602 33 -31 79 -69 101 -83 l41 -27 -130 -13 c-73 -7 -179 -26 -244 -43 -218
-58 -195 -55 -248 -28 -41 21 -60 24 -157 24 -103 0 -114 -2 -179 -33 -90 -42
-178 -106 -247 -178 -100 -106 -94 -114 101 -114 81 0 149 -3 153 -6 3 -3 -10
-31 -29 -62 -49 -81 -47 -86 29 -78 34 4 150 11 257 16 250 12 322 19 390 36
40 10 131 14 355 14 315 0 482 10 625 36 106 19 253 61 303 86 l37 19 93 -45
c198 -95 484 -175 792 -221 420 -63 745 -90 1220 -102 159 -3 280 -10 270 -14
-11 -4 -60 -19 -110 -34 -113 -34 -246 -86 -306 -119 -26 -15 -71 -34 -100
-42 -113 -34 -409 -215 -409 -251 0 -4 21 -19 47 -33 44 -23 56 -25 168 -22
l120 2 -30 -25 -30 -25 26 -22 c67 -58 73 -61 148 -69 190 -20 425 -5 589 37
53 13 185 35 292 49 196 24 306 42 435 71 419 95 680 192 776 290 40 40 44 49
43 92 0 26 -4 57 -8 69 -7 18 -1 26 36 48 23 15 61 44 83 65 32 30 50 39 90
44 28 3 124 15 215 25 225 27 661 97 722 117 12 3 58 15 102 24 154 34 420
110 526 150 246 92 267 101 445 191 186 93 417 237 491 304 6 5 33 28 60 50
56 45 243 230 294 291 19 23 44 52 55 65 55 66 173 259 230 374 106 216 145
354 176 633 17 154 -5 381 -57 587 -78 308 -213 571 -470 913 -209 278 -320
440 -403 585 -33 60 -61 110 -61 112 0 3 -11 28 -24 58 -113 247 -173 647
-136 910 27 192 33 228 52 302 76 308 208 554 398 745 52 52 115 109 140 125
25 17 47 33 50 36 12 15 189 103 249 124 92 33 254 65 326 65 168 0 318 -103
399 -273 40 -84 62 -190 32 -152 -79 99 -145 136 -252 143 -142 9 -282 -40
-404 -141 -117 -96 -177 -209 -187 -351 -11 -153 30 -260 142 -371 73 -72 114
-99 225 -142 57 -23 80 -26 195 -27 139 -1 186 9 289 62 115 60 238 186 301
309 35 68 36 69 88 77 22 4 71 23 108 42 119 63 203 175 235 313 14 63 14 82
4 135 -7 33 -18 75 -25 91 -20 48 -85 111 -152 144 -69 34 -78 50 -68 119 7
47 47 175 69 221 6 13 11 56 11 95 0 61 -4 77 -27 110 -15 22 -47 53 -70 69
l-43 29 -155 -6 c-93 -4 -169 -2 -191 4 -70 20 -131 89 -159 181 -7 25 -4 28
64 59 104 47 209 113 313 197 217 175 352 378 423 638 26 94 36 263 22 350 -9
54 -7 64 15 110 l24 50 -53 155 c-45 130 -58 157 -80 167 -22 11 -29 28 -52
125 -15 62 -36 147 -46 188 -10 41 -23 100 -30 130 -17 83 -48 112 -154 139
-23 6 -46 7 -55 1 -14 -7 -113 -133 -141 -179 -9 -16 -16 -13 -80 29 -98 63
-242 131 -290 137 -70 8 -92 0 -113 -44 -9 -21 -27 -54 -40 -74 -12 -20 -48
-82 -80 -138 -32 -55 -61 -101 -64 -101 -3 0 -60 18 -127 39 -221 72 -255 81
-291 81 -39 0 -30 15 -151 -250 -19 -41 -36 -76 -38 -78 -2 -2 -28 4 -57 13
-30 9 -81 25 -114 35 -33 10 -93 28 -133 40 l-73 23 -26 -24 c-14 -13 -36 -46
-48 -74 -22 -49 -78 -223 -89 -276 -5 -24 -12 -28 -68 -37 -35 -6 -119 -16
-188 -22 -69 -6 -135 -16 -147 -22 -43 -21 -41 -35 32 -193 7 -16 28 -64 46
-105 17 -41 42 -98 54 -126 29 -63 30 -72 21 -106 -6 -21 2 -56 32 -140 22
-62 45 -128 51 -147 6 -18 22 -45 36 -59 31 -30 33 -28 -90 -72 -242 -86 -344
-122 -385 -136 -25 -9 -59 -22 -77 -30 -17 -8 -35 -14 -40 -14 -5 0 -114 -38
-243 -85 -129 -47 -238 -85 -241 -85 -3 0 -12 33 -19 73 -62 351 -328 574
-830 697 -47 12 -107 31 -135 42 -67 29 -142 84 -150 109 -10 29 39 94 155
209 53 52 109 117 124 143 136 238 55 627 -185 894 -56 62 -142 131 -196 157
-32 15 -66 32 -75 37 -27 14 -138 29 -213 28 -79 0 -191 -17 -315 -48 -171
-43 -265 -60 -355 -67 l-93 -7 -4 94 c-7 142 -49 211 -160 255 -81 34 -234 33
-366 -1z m326 -41 c69 -20 116 -64 132 -123 6 -24 9 -45 6 -48 -2 -3 -26 17
-53 44 -48 49 -101 73 -158 73 l-28 0 28 -27 c32 -32 50 -66 59 -109 7 -30 6
-31 -19 -26 -45 8 -82 -47 -57 -84 12 -19 85 -60 147 -84 46 -17 89 -23 180
-27 122 -5 179 1 335 36 206 46 239 52 324 61 165 17 287 -24 401 -134 50 -49
53 -55 74 -144 50 -221 12 -518 -91 -712 -16 -30 -61 -93 -99 -140 -131 -159
-152 -211 -129 -316 15 -64 43 -100 103 -130 45 -23 68 -27 201 -34 83 -4 162
-12 176 -17 14 -6 54 -13 89 -17 67 -8 227 -58 271 -85 60 -37 134 -129 183
-226 32 -65 67 -226 67 -312 0 -77 -31 -255 -59 -335 -21 -60 -71 -170 -82
-178 -3 -3 -13 -18 -22 -35 -31 -61 -147 -184 -229 -242 -93 -67 -147 -99
-228 -132 -30 -12 -64 -26 -75 -31 -118 -51 -517 -119 -596 -101 -69 16 -197
69 -262 110 -35 21 -40 22 -54 8 -34 -34 28 -99 155 -162 67 -33 74 -40 114
-108 24 -40 72 -131 108 -203 36 -71 68 -130 73 -132 4 -2 7 -8 7 -13 0 -4 22
-55 49 -111 41 -88 100 -221 158 -358 8 -19 19 -43 24 -52 5 -10 9 -23 9 -30
0 -7 6 -25 14 -40 8 -14 19 -43 26 -65 7 -21 16 -42 20 -48 4 -5 13 -28 20
-50 7 -22 18 -53 25 -70 7 -16 20 -52 29 -80 9 -27 37 -111 62 -185 44 -130
55 -172 110 -435 53 -254 121 -691 144 -934 5 -55 12 -111 15 -123 17 -75 47
-687 51 -1043 4 -366 12 -485 34 -540 4 -11 22 -76 40 -145 17 -69 47 -175 65
-237 24 -76 32 -122 28 -146 -5 -35 12 -61 23 -33 5 13 15 11 74 -10 80 -28
106 -30 118 -7 10 17 7 27 -45 139 -13 28 -26 67 -30 86 -4 30 -2 38 17 48 48
26 248 -5 405 -61 43 -15 260 -23 325 -11 337 62 630 293 788 623 18 36 32 69
32 73 0 5 7 22 14 39 17 36 41 121 62 217 21 95 29 365 15 488 -12 104 -51
272 -75 327 -8 17 -19 48 -26 70 -21 65 -133 292 -205 415 -38 63 -82 139 -99
169 -17 29 -41 70 -53 90 -12 20 -25 43 -29 51 -4 8 -24 42 -44 75 -35 59
-120 228 -158 315 -23 52 -63 169 -86 252 -52 184 -70 495 -41 708 24 182 83
412 131 517 8 17 14 34 14 37 0 12 46 113 92 203 98 191 209 344 360 498 173
176 303 272 493 364 118 57 173 81 187 81 7 0 26 7 41 15 16 8 61 21 100 30
40 8 90 20 112 25 64 17 360 24 443 11 131 -20 302 -127 454 -281 79 -81 138
-157 138 -178 0 -4 -20 -16 -44 -26 -83 -34 -63 -68 27 -47 28 6 53 8 57 4 3
-5 17 -42 30 -83 61 -196 8 -451 -139 -664 -47 -68 -166 -192 -220 -229 -52
-35 -186 -77 -248 -77 -121 0 -284 116 -350 250 -26 50 -28 64 -27 165 0 98 3
116 28 170 95 205 313 332 512 298 77 -13 105 -30 139 -81 53 -80 53 -238 0
-328 -74 -127 -182 -167 -278 -103 -60 39 -87 84 -87 140 1 68 69 133 133 127
27 -3 34 -9 47 -46 20 -57 44 -71 79 -45 35 27 39 77 11 136 -63 134 -262 106
-347 -48 -23 -41 -28 -62 -28 -120 0 -84 20 -129 84 -193 98 -98 254 -131 362
-77 88 45 122 90 209 275 4 9 11 36 14 60 4 25 12 68 18 95 8 39 6 71 -6 145
-39 223 -194 419 -388 487 -63 23 -218 27 -308 9 -358 -71 -552 -153 -752
-318 -45 -38 -68 -42 -68 -14 0 17 -68 79 -108 100 -39 20 -112 32 -112 18 0
-5 8 -12 18 -16 34 -12 105 -62 124 -87 11 -14 23 -42 28 -62 8 -36 5 -41 -74
-140 -219 -271 -331 -591 -358 -1015 l-12 -182 -20 19 c-40 37 -124 72 -188
78 -78 7 -170 -11 -204 -40 -22 -19 -23 -24 -12 -40 12 -17 16 -17 57 -2 26 9
78 15 130 15 75 0 94 -4 146 -29 87 -43 91 -48 99 -121 6 -63 56 -280 66 -290
3 -3 11 -27 18 -55 7 -27 19 -63 26 -80 7 -16 28 -68 46 -115 39 -100 150
-326 210 -425 23 -38 49 -83 58 -99 16 -28 314 -481 353 -538 11 -15 19 -30
19 -34 0 -3 9 -18 19 -33 l19 -26 -117 -1 c-103 -1 -126 -4 -201 -31 -128 -46
-260 -119 -260 -145 0 -16 30 -7 122 36 171 80 239 99 363 100 l110 1 53 -108
c182 -367 255 -752 211 -1109 -13 -112 -62 -285 -86 -309 -25 -25 -212 -59
-326 -59 -51 0 -148 9 -216 20 -68 11 -127 18 -130 14 -19 -19 127 -71 296
-105 84 -17 132 -20 215 -17 l106 4 -28 -52 c-15 -29 -36 -66 -47 -81 -10 -16
-22 -36 -28 -45 -108 -180 -349 -448 -542 -602 -101 -81 -305 -212 -398 -255
-11 -5 -54 -25 -95 -46 -86 -42 -220 -95 -300 -120 -30 -9 -77 -23 -103 -31
-26 -8 -93 -22 -149 -31 -141 -23 -230 -10 -330 48 -76 45 -153 116 -192 178
-44 69 -121 276 -147 396 -21 96 -27 109 -55 103 -16 -3 -17 -19 -18 -178 -1
-167 -3 -179 -30 -255 -33 -91 -71 -160 -125 -225 -34 -42 -90 -100 -97 -100
-3 0 33 84 57 135 10 21 39 120 42 144 1 8 -3 16 -9 18 -7 2 -24 -29 -40 -74
-27 -76 -103 -229 -152 -308 -102 -164 -311 -365 -379 -365 -18 0 -69 -23
-146 -67 -11 -6 -43 -15 -70 -18 -37 -5 -51 -12 -54 -26 -6 -21 -13 -23 -118
-38 -103 -15 -155 -17 -163 -5 -4 6 -25 14 -47 18 -159 30 -407 145 -560 261
-134 101 -342 327 -433 470 -17 28 -36 55 -41 61 -29 35 -102 196 -133 294
-19 63 -23 96 -22 200 0 111 3 134 28 203 72 200 214 377 452 565 16 12 43 33
59 46 99 78 457 314 623 411 51 30 73 50 78 72 7 27 -19 63 -46 63 -14 0 -200
-100 -280 -150 -50 -32 -182 -110 -185 -110 -2 0 -55 -34 -117 -77 -141 -95
-271 -196 -355 -276 -70 -67 -188 -210 -219 -266 -11 -19 -31 -56 -45 -82
-113 -207 -129 -454 -44 -684 42 -116 181 -347 255 -426 8 -9 30 -36 49 -60
19 -24 82 -92 140 -151 l106 -107 -40 -3 c-99 -7 -232 10 -296 38 -228 100
-413 398 -521 839 -49 200 -70 372 -72 590 -1 231 13 360 72 660 l17 90 98 0
c62 0 97 -4 97 -11 0 -23 50 -55 103 -66 43 -9 70 -9 110 -1 102 21 256 133
378 275 l61 71 78 -2 c134 -4 282 23 465 84 108 36 324 136 410 190 22 14 49
29 61 34 36 16 167 126 227 190 170 182 284 448 328 761 17 117 14 452 -4 570
-20 124 -46 243 -58 255 -5 5 -9 16 -9 25 0 22 -44 113 -88 181 -27 43 -42 58
-55 55 -12 -3 -33 10 -58 35 -21 21 -48 39 -60 39 -106 0 -116 -157 -35 -523
35 -157 41 -283 22 -447 -9 -74 -21 -148 -26 -165 -6 -16 -24 -79 -41 -140
-64 -223 -140 -333 -319 -464 -203 -147 -356 -239 -464 -280 -63 -23 -215 -64
-301 -81 -105 -20 -268 -60 -327 -81 -53 -19 -60 -19 -116 -5 -125 33 -210 84
-309 186 -37 38 -123 167 -135 203 -6 18 -15 37 -19 42 -15 20 -59 210 -59
258 0 74 28 181 60 229 36 55 100 114 165 154 80 50 96 57 380 166 246 95 261
101 390 163 306 148 477 359 477 588 -1 75 -33 199 -74 284 -45 92 -49 97 -77
88 -32 -10 -32 -32 0 -128 24 -69 33 -117 37 -189 3 -57 1 -98 -5 -98 -8 0
-62 107 -107 210 -8 20 -22 80 -32 135 -18 110 -25 125 -59 125 -53 0 -58
-137 -13 -404 13 -83 53 -176 94 -225 l36 -41 -26 -31 c-64 -76 -190 -163
-347 -238 -57 -28 -104 -49 -105 -48 -2 2 8 41 22 87 13 47 30 103 36 125 6
22 23 54 38 70 57 64 75 106 75 177 0 52 -5 73 -21 95 -18 24 -22 48 -27 168
-7 144 -37 301 -73 375 -9 19 -26 54 -37 77 -50 105 -176 230 -289 289 -119
61 -153 69 -303 69 -128 -1 -146 -3 -209 -28 -77 -30 -171 -91 -231 -148 -21
-21 -41 -37 -42 -35 -2 2 3 21 11 42 42 111 54 315 27 439 -14 63 -82 232
-111 275 -10 14 -39 58 -66 99 -115 175 -357 406 -662 633 -53 40 -99 75 -102
78 -6 7 -77 56 -160 110 -205 136 -391 236 -625 334 -102 44 -267 93 -405 121
-98 21 -323 45 -419 45 -57 0 -3 12 155 35 346 50 721 23 1184 -86 69 -16 148
-36 175 -43 263 -75 419 -125 655 -209 194 -70 482 -177 517 -193 17 -8 34
-14 38 -14 4 0 21 -6 38 -14 39 -17 271 -98 347 -121 319 -97 594 -138 785
-115 412 47 700 179 878 401 20 25 37 50 37 54 0 5 6 16 14 24 16 19 66 163
66 191 0 25 40 27 120 4 74 -20 273 -30 326 -15 50 13 100 46 128 84 17 23 21
40 18 95 -1 44 -8 75 -20 91 -40 55 -150 91 -277 91 -169 0 -466 -60 -630
-128 -97 -40 -241 -121 -259 -145 l-20 -27 27 -27 27 -27 81 33 c45 18 103 39
130 46 l49 13 -6 -26 c-4 -15 -22 -56 -41 -92 -20 -36 -41 -77 -49 -91 -42
-78 -194 -210 -304 -263 -92 -45 -265 -86 -360 -86 -41 1 -47 4 -68 38 -33 53
-61 83 -111 117 -37 25 -54 30 -103 30 -52 0 -61 -3 -83 -29 -26 -31 -28 -29
-39 32 -9 52 -64 160 -104 204 -51 56 -105 82 -172 82 -63 -1 -97 -16 -161
-73 l-47 -41 -26 39 c-42 60 -95 101 -133 101 -15 0 -22 15 -36 68 -23 87 -72
172 -122 212 -36 29 -45 32 -96 28 -48 -3 -61 -9 -92 -40 -20 -20 -52 -61 -70
-90 -35 -55 -97 -181 -97 -197 0 -6 -5 -13 -12 -17 -7 -5 -9 -2 -6 7 7 17 -29
35 -177 89 -49 18 -103 39 -120 46 -16 7 -119 43 -227 78 -357 119 -684 192
-968 217 -152 13 -405 5 -515 -16 -39 -7 -108 -20 -155 -29 -149 -27 -265 -69
-460 -165 -108 -53 -303 -169 -361 -215 -15 -12 -39 -30 -55 -41 -75 -53 -161
-130 -284 -253 -74 -74 -159 -153 -188 -174 -63 -47 -163 -98 -190 -98 -53 0
-135 169 -161 330 -13 81 -14 263 -1 352 18 126 77 277 145 373 87 121 129
145 262 145 136 0 220 -47 249 -139 7 -20 9 -48 7 -63 -3 -17 -1 -28 6 -28 12
0 25 18 68 96 93 170 122 219 182 309 132 201 255 335 350 382 73 36 165 39
208 7 68 -51 100 -193 88 -396 -4 -81 -3 -118 4 -118 6 0 11 4 11 8 0 4 8 8
18 8 19 1 304 80 340 95 13 5 78 9 145 9 132 0 273 17 407 49 93 22 120 33
260 105 52 27 129 67 170 88 118 60 142 65 182 37 42 -30 57 -45 93 -93 135
-183 370 -312 633 -347 99 -13 407 -7 492 10 116 23 239 51 275 64 22 8 52 17
66 20 l26 7 6 -123 c8 -181 53 -301 149 -403 214 -226 561 -180 837 111 178
188 319 414 416 664 135 350 138 593 9 796 -62 99 -151 162 -276 196 -158 44
-345 3 -528 -116 -83 -53 -97 -65 -178 -144 -58 -57 -64 -60 -58 -35 51 223
45 377 -18 502 -28 55 -92 113 -145 131 -47 15 -158 14 -214 -3 l-47 -14 30
38 c131 166 451 271 648 214z m-468 -334 c117 -34 165 -189 141 -459 -14 -159
-32 -244 -61 -283 -27 -37 -94 -171 -121 -242 -11 -31 -24 -56 -28 -56 -4 0
-17 -9 -28 -19 -25 -24 -203 -141 -214 -141 -17 0 36 175 87 287 21 47 18 98
-8 123 -43 41 -55 42 -68 9 -15 -35 -37 -49 -80 -49 -28 0 -33 -5 -57 -57 -54
-123 -83 -354 -48 -383 25 -21 18 -29 -47 -60 -58 -26 -208 -60 -269 -60 -32
0 -36 11 -45 140 -14 210 52 551 148 755 71 153 208 303 370 408 130 84 238
113 328 87z m5681 -158 c56 -24 191 -105 240 -144 56 -43 77 -38 124 26 121
165 125 169 157 144 15 -12 15 -21 2 -98 -32 -199 -61 -361 -65 -365 -3 -2
-36 37 -75 87 -78 103 -91 113 -127 105 -27 -7 -26 -4 -109 -257 -22 -69 -42
-126 -43 -128 -1 -2 -29 6 -61 17 -140 47 -321 101 -337 101 -9 0 -34 -24 -55
-52 -44 -61 -145 -206 -181 -260 -14 -22 -33 -38 -43 -38 -19 0 -288 57 -402
85 -66 16 -81 12 -118 -34 -21 -26 -78 -91 -231 -263 l-60 -68 -37 28 c-20 15
-50 37 -66 49 -50 39 -157 116 -217 157 -31 22 -57 42 -57 46 0 3 62 12 137
19 162 15 188 25 197 78 12 66 84 294 103 322 1 2 40 -8 85 -22 46 -14 99 -30
118 -36 19 -5 66 -19 103 -30 54 -16 73 -18 93 -9 13 6 24 14 24 19 0 4 32 73
70 153 46 95 76 146 86 146 22 0 107 -22 119 -30 6 -4 35 -13 65 -20 30 -7 62
-17 70 -22 8 -4 47 -16 86 -27 66 -17 72 -18 97 -3 15 9 27 21 27 27 0 6 32
64 71 130 39 65 73 126 77 134 3 9 14 28 24 43 20 30 17 30 109 -10z m-4732
-223 c126 -29 227 -142 267 -301 76 -298 7 -625 -192 -915 -230 -335 -640
-512 -885 -382 -120 64 -187 157 -229 315 -95 364 125 845 524 1147 72 55 221
124 291 136 113 20 135 20 224 0z m5392 -252 c7 -32 16 -60 21 -63 14 -9 -45
-59 -152 -129 -312 -205 -759 -392 -1310 -549 -91 -26 -259 -64 -360 -82 -52
-9 -115 -20 -140 -25 -67 -12 -323 -22 -337 -12 -9 7 -83 165 -149 321 -16 35
-9 40 21 17 11 -9 54 -40 95 -71 41 -30 80 -58 85 -62 114 -86 181 -132 192
-132 16 0 60 43 143 140 30 35 78 89 105 120 28 30 64 72 82 93 l32 37 93 -20
c51 -11 145 -31 208 -46 63 -14 133 -28 156 -31 l41 -5 51 71 c29 39 52 75 52
80 0 5 6 14 13 20 8 6 40 49 72 96 31 47 60 85 64 85 3 0 74 -22 156 -49 207
-67 253 -77 270 -60 13 14 73 175 96 259 23 83 27 82 119 -40 72 -95 87 -110
112 -110 36 0 40 11 68 181 12 74 26 152 32 174 l11 40 23 -95 c13 -52 29
-121 35 -153z m120 -190 l11 -42 -80 -76 c-44 -42 -98 -90 -119 -105 -21 -16
-40 -31 -43 -34 -11 -12 -149 -99 -235 -147 -81 -46 -338 -173 -350 -173 -3 0
-24 -9 -48 -19 -205 -95 -489 -183 -707 -221 -36 -7 -85 -15 -110 -20 -101
-18 -512 -51 -604 -48 l-98 3 -19 50 c-10 28 -19 53 -19 56 0 3 80 9 178 12
174 5 246 15 492 68 52 11 115 27 140 34 25 7 74 21 110 30 97 25 432 132 485
155 11 5 74 30 140 56 226 89 406 176 634 309 51 30 131 88 171 123 24 22 48
38 52 36 4 -3 13 -24 19 -47z m-10430 -200 c24 -13 45 -31 47 -41 3 -12 -3
-10 -22 9 -29 29 -44 30 -113 10 -48 -14 -79 -41 -145 -123 -24 -30 -100 -169
-118 -216 -14 -36 -20 -40 -77 -56 -34 -9 -73 -24 -86 -33 -33 -21 -97 -33
-97 -17 0 16 81 177 111 220 87 127 211 228 319 261 54 16 135 10 181 -14z
m10434 -259 c-15 -141 -77 -314 -157 -438 -59 -91 -162 -203 -209 -228 -159
-85 -214 -110 -327 -148 l-82 -27 -33 29 c-51 47 -72 54 -152 54 -86 0 -158
-26 -214 -78 -41 -39 -64 -40 -188 -8 -142 37 -212 89 -213 159 0 62 65 114
235 188 49 21 151 50 295 83 376 88 614 185 885 362 51 33 107 73 125 87 17
15 34 27 37 27 3 0 2 -28 -2 -62z m-10535 -217 c0 -11 -3 -22 -7 -24 -5 -3 -8
6 -8 19 0 13 3 24 8 24 4 0 7 -9 7 -19z m8347 -410 c27 -17 52 -56 41 -66 -1
-1 -50 -18 -108 -38 -58 -19 -116 -40 -130 -45 -14 -6 -92 -34 -175 -62 -82
-29 -159 -56 -170 -61 -11 -5 -47 -17 -80 -28 -33 -10 -118 -40 -190 -66 -71
-25 -152 -53 -180 -62 -27 -8 -54 -18 -60 -21 -5 -3 -64 -25 -132 -48 l-123
-43 0 58 0 58 93 32 c50 18 144 51 207 72 63 22 124 44 135 48 11 5 106 39
210 76 105 38 240 85 300 107 61 21 130 46 155 54 25 8 54 19 65 24 76 33 101
35 142 11z m-4954 -50 c64 -42 93 -126 157 -446 11 -55 20 -101 20 -102 0 -10
-53 0 -95 17 -27 11 -129 52 -225 90 -107 43 -174 75 -173 82 6 32 116 220
161 277 32 39 106 101 121 101 3 0 19 -8 34 -19z m5052 -199 c17 -15 48 -40
70 -56 22 -16 42 -31 44 -32 2 -2 -8 -22 -22 -46 -13 -24 -47 -86 -74 -138
-87 -165 -125 -211 -194 -231 -47 -15 -114 -1 -191 37 -162 81 -282 71 -339
-30 -25 -45 -28 -109 -20 -391 5 -148 0 -166 -57 -222 -40 -38 -82 -57 -242
-108 -127 -41 -191 -84 -264 -179 -80 -106 -116 -210 -116 -336 0 -92 14 -153
54 -233 l34 -66 -32 -7 c-17 -3 -58 -19 -91 -34 -148 -66 -206 -170 -184 -328
12 -84 52 -175 135 -308 67 -107 78 -124 170 -253 77 -107 114 -188 114 -249
0 -67 -19 -104 -110 -212 -93 -110 -120 -168 -120 -260 0 -98 34 -180 110
-262 97 -107 158 -138 335 -172 258 -50 333 -104 323 -238 -4 -49 -17 -84 -76
-201 -66 -130 -72 -147 -72 -202 1 -130 68 -209 265 -315 71 -37 105 -67 105
-90 0 -9 -10 -26 -22 -37 -59 -53 -136 -67 -218 -38 -142 50 -234 21 -286 -90
-22 -46 -24 -62 -24 -221 0 -216 -16 -266 -77 -243 -32 12 -49 54 -56 139 -9
96 -22 143 -51 177 -21 24 -31 28 -82 27 -42 0 -69 -7 -94 -22 -37 -22 -48
-35 -130 -145 -64 -85 -102 -106 -160 -88 -123 37 -105 193 49 433 132 206
144 236 145 363 0 93 -2 104 -31 160 -17 34 -60 92 -95 130 -128 139 -194 222
-212 270 -38 100 -22 198 49 303 118 174 131 209 122 330 -6 79 -36 175 -78
248 -13 21 -67 95 -120 164 -106 138 -149 213 -175 308 -16 61 -16 65 6 150
12 48 26 92 30 97 19 24 60 174 60 217 0 55 -22 118 -58 167 -22 30 -49 49
-192 138 -75 46 -127 101 -150 158 -25 62 -24 83 11 278 21 115 22 136 11 200
-23 131 -103 214 -250 257 -23 7 -41 15 -39 17 2 1 51 10 108 18 180 27 349
76 482 142 68 34 176 98 187 112 3 3 21 18 41 33 19 14 56 48 82 75 120 125
190 246 222 383 10 41 22 80 27 86 4 6 30 17 56 25 26 7 58 19 72 26 14 7 31
13 37 13 7 0 41 11 75 24 35 13 173 63 308 111 135 47 274 97 310 110 36 12
157 55 270 95 113 39 212 75 220 80 24 14 33 12 65 -18z m1217 -3 c44 -20 67
-68 78 -167 15 -137 48 -195 145 -253 38 -23 47 -24 227 -24 l187 0 28 -28
c45 -44 39 -108 -28 -310 -11 -32 -20 -88 -21 -125 -1 -55 -2 -62 -9 -37 -11
36 2 115 37 226 21 64 25 96 22 151 -3 62 -7 71 -33 93 -36 29 -95 32 -247 13
-98 -12 -158 -5 -224 24 -28 13 -73 84 -79 127 -11 64 -46 165 -70 201 -37 53
-80 75 -146 73 -68 -1 -110 -21 -204 -97 -78 -63 -179 -116 -220 -116 -39 0
-88 34 -111 76 -12 23 -46 54 -92 85 -112 75 -150 67 -233 -49 -22 -32 -53
-75 -69 -97 -16 -22 -48 -77 -72 -123 -50 -97 -124 -184 -179 -213 -82 -42
-158 -36 -286 23 -120 54 -188 46 -245 -29 -37 -48 -43 -104 -24 -216 33 -195
13 -308 -73 -400 -36 -39 -99 -69 -211 -101 -195 -55 -307 -138 -372 -276 -62
-131 -60 -250 6 -382 33 -67 37 -85 9 -50 -59 75 -92 226 -73 334 19 104 71
201 145 270 38 35 132 81 210 103 101 28 208 68 242 90 96 63 121 158 97 358
-21 169 -16 264 17 312 42 61 109 68 233 24 83 -29 179 -40 245 -28 103 20
169 81 256 237 59 106 164 239 214 269 47 30 103 30 144 1 75 -52 166 -131
162 -139 -9 -14 31 -29 77 -29 61 1 115 28 189 97 113 106 128 113 235 113 51
0 103 -5 116 -11z m-5639 -133 c42 -17 83 -65 114 -135 27 -61 115 -322 110
-327 -8 -8 -237 61 -372 111 -38 15 -86 33 -105 40 -20 7 -34 19 -32 26 6 29
45 114 71 153 36 57 36 56 77 104 40 47 76 54 137 28z m6435 -979 c13 -12 36
-44 50 -72 22 -42 26 -63 26 -130 0 -108 -31 -176 -104 -234 -45 -36 -70 -49
-70 -38 0 2 20 24 44 50 24 25 57 67 73 94 24 41 28 58 28 123 -1 99 -28 155
-110 223 -85 70 -86 71 -20 37 32 -16 70 -40 83 -53z m-4611 -218 c132 -54
179 -84 227 -142 53 -65 63 -132 41 -274 -36 -234 -31 -321 27 -407 28 -44
126 -118 193 -147 17 -8 32 -16 35 -19 3 -3 16 -13 30 -21 14 -9 36 -38 50
-65 21 -41 25 -63 25 -134 0 -80 -3 -90 -45 -175 -43 -89 -44 -92 -44 -195 -1
-86 3 -115 22 -164 22 -57 64 -136 89 -166 176 -216 226 -294 252 -390 26 -93
26 -132 1 -204 -22 -64 -44 -103 -105 -186 -60 -82 -75 -121 -75 -199 0 -136
54 -238 214 -406 88 -92 120 -138 142 -208 16 -50 16 -64 5 -110 -20 -82 -94
-229 -138 -275 -6 -6 -15 -21 -18 -32 -3 -11 -10 -20 -14 -20 -4 0 -32 -48
-62 -107 l-54 -107 0 -102 c0 -86 3 -105 19 -123 11 -12 14 -21 9 -21 -16 0
-50 79 -58 131 -5 31 0 72 14 132 25 106 39 139 153 357 70 135 86 206 64 282
-18 62 -43 97 -162 221 -135 140 -180 226 -191 357 -6 85 20 160 89 254 89
122 108 167 108 252 0 128 -50 237 -190 409 -108 133 -155 228 -181 361 -15
80 4 167 63 290 52 107 57 177 19 257 -25 55 -45 74 -144 139 -106 70 -115 77
-151 127 -62 84 -67 169 -25 401 10 58 19 126 19 152 0 54 -23 122 -54 156
-36 41 -156 96 -261 121 l-40 9 37 1 c20 1 50 -4 65 -10z m-2592 -229 c22 -43
19 -58 -17 -69 -18 -5 -105 -35 -193 -66 -88 -31 -180 -64 -205 -72 -25 -8
-54 -18 -65 -23 -11 -4 -94 -34 -185 -65 -91 -31 -182 -64 -202 -72 -35 -15
-41 -15 -75 0 -21 10 -55 20 -77 25 l-39 7 69 24 c38 12 78 27 89 32 11 5 43
16 70 24 28 9 59 20 70 26 11 5 40 15 65 23 25 8 110 37 190 65 322 114 377
134 430 151 30 11 56 19 57 19 1 1 9 -12 18 -29z m65 -315 c0 -175 -64 -360
-171 -498 l-37 -47 -36 73 c-45 94 -65 112 -123 112 -41 0 -49 -4 -92 -51 -88
-96 -114 -245 -69 -400 l21 -75 -66 -65 c-59 -57 -70 -64 -94 -58 -87 21 -153
99 -211 249 -59 154 -57 140 -23 214 16 36 38 100 47 141 14 63 15 84 5 134
-7 32 -11 59 -9 61 2 1 120 44 263 95 143 51 278 100 300 110 22 10 51 21 65
25 14 4 39 13 55 20 78 32 161 64 168 64 4 1 7 -46 7 -104z m-1548 -72 c-12
-141 -23 -176 -54 -171 -51 7 -44 116 16 252 40 89 50 66 38 -81z m-380 -80
c2 -90 0 -163 -5 -170 -14 -20 -55 -15 -67 6 -16 32 -12 132 11 222 23 95 25
99 44 99 10 0 14 -35 17 -157z m2631 13 c172 -66 312 -211 386 -398 37 -96 63
-243 59 -343 l-3 -80 -39 60 c-53 83 -169 229 -219 277 -53 50 -157 113 -231
139 -81 28 -222 35 -315 15 -92 -19 -220 -83 -284 -141 -31 -27 -65 -47 -94
-54 -42 -11 -48 -10 -84 14 -22 14 -39 28 -39 32 0 4 18 34 39 67 22 34 61
101 88 151 65 121 148 191 313 264 50 22 117 30 235 27 100 -3 131 -8 188 -30z
m-1765 -7 c73 -24 90 -46 64 -79 l-18 -22 -42 21 c-57 29 -141 36 -230 18 -43
-8 -75 -10 -78 -5 -19 30 106 85 197 87 25 1 73 -8 107 -20z m7352 -59 c-25
-4 -54 -4 -65 1 -13 5 3 8 45 7 63 0 63 -1 20 -8z m-8583 -41 c-3 -22 1 -89 9
-147 7 -59 14 -126 14 -150 0 -39 -2 -43 -22 -40 -49 7 -72 153 -48 294 14 79
17 84 36 84 14 0 16 -7 11 -41z m867 5 c22 -8 20 -43 -1 -50 -10 -3 -31 -12
-46 -20 -38 -19 -53 -18 -62 3 -4 13 3 26 25 45 30 28 54 34 84 22z m5066
-116 c-60 -132 16 -318 274 -672 88 -121 127 -195 146 -277 11 -51 11 -62 -9
-120 -17 -52 -36 -81 -102 -154 -45 -50 -90 -108 -100 -130 -45 -97 -10 -225
86 -321 28 -29 78 -66 111 -83 63 -34 39 -33 -36 1 -86 39 -168 116 -205 193
-49 100 -22 201 85 319 75 83 123 179 123 249 1 94 -55 215 -183 397 -133 187
-170 254 -210 373 -29 90 -26 187 8 235 31 43 35 40 12 -10z m-5585 -68 c7
-11 28 -86 50 -181 9 -36 30 -102 46 -145 53 -136 57 -154 34 -170 -17 -12
-22 -11 -43 9 -33 30 -66 106 -87 197 -19 84 -44 288 -36 295 8 8 30 5 36 -5z
m1621 -60 c12 -25 33 -69 45 -99 30 -69 100 -131 200 -179 l78 -37 0 -45 c0
-25 -6 -73 -12 -106 l-12 -61 -55 14 c-136 35 -232 136 -284 298 -26 79 -41
232 -26 251 21 24 41 13 66 -36z m-2107 -70 c1 -23 -8 -28 -112 -63 -61 -21
-121 -42 -132 -47 -11 -4 -94 -34 -185 -65 -161 -56 -285 -100 -325 -115 -11
-4 -94 -33 -185 -65 -91 -31 -181 -63 -200 -70 -19 -7 -96 -34 -170 -60 -74
-25 -156 -54 -182 -65 l-48 -18 0 33 c0 24 8 42 27 60 15 14 32 25 38 25 11 0
282 95 330 115 17 8 51 19 78 25 26 7 50 16 53 21 3 5 12 9 20 9 9 0 43 11 77
24 34 13 179 65 322 115 143 51 283 100 310 110 255 94 270 98 277 76 3 -11 6
-31 7 -45z m865 23 c3 -10 10 -45 15 -78 6 -33 18 -81 28 -106 17 -49 13 -79
-11 -79 -38 0 -62 67 -73 208 -6 68 -5 72 15 72 11 0 23 -8 26 -17z m2141 -13
c47 -11 105 -30 128 -41 73 -37 154 -109 220 -194 4 -5 21 -28 38 -50 18 -22
52 -71 77 -110 24 -38 65 -89 90 -113 42 -39 46 -47 46 -91 0 -29 -8 -61 -20
-82 -26 -44 -106 -105 -168 -127 -32 -11 -70 -38 -112 -78 -77 -74 -118 -94
-254 -127 -82 -20 -121 -24 -175 -20 -56 4 -73 2 -83 -10 -34 -41 32 -75 124
-64 36 4 46 1 50 -12 3 -9 15 -35 27 -58 27 -53 17 -88 -32 -114 -34 -18 -34
-18 -69 9 -30 23 -46 27 -127 30 -78 4 -99 1 -141 -17 -111 -49 -176 -119
-212 -226 l-20 -60 -74 -12 c-40 -7 -111 -21 -158 -32 -47 -10 -88 -16 -92
-12 -4 4 -20 40 -35 81 -24 65 -28 90 -28 185 0 107 1 112 38 189 67 136 197
241 347 280 51 13 57 12 75 -4 33 -30 70 -41 91 -26 24 18 12 44 -28 61 -53
23 -75 46 -101 105 -38 86 -38 84 6 95 23 6 48 22 60 37 18 24 18 32 8 93 -9
51 -9 90 0 165 10 85 10 101 -4 130 -20 40 -14 54 50 108 63 52 138 89 226
112 94 24 129 24 232 0z m-2802 -141 c10 -19 34 -50 53 -69 32 -34 44 -73 25
-84 -5 -3 -23 -1 -40 5 -50 18 -115 145 -89 176 16 19 29 12 51 -28z m1128
-126 c21 -66 99 -192 141 -228 24 -20 57 -37 77 -40 63 -10 76 -15 98 -32 22
-18 22 -18 -73 -88 -53 -38 -101 -75 -107 -80 -7 -6 -37 -28 -67 -50 -30 -22
-57 -42 -60 -46 -3 -3 -34 -30 -70 -60 -121 -99 -216 -196 -340 -349 -19 -24
-42 -50 -50 -59 -19 -22 -101 -128 -123 -161 -9 -14 -30 -44 -47 -68 -16 -23
-30 -44 -30 -46 0 -2 -18 -34 -40 -70 -22 -36 -40 -70 -40 -76 0 -15 -7 -13
-58 17 -61 36 -150 125 -193 193 -48 75 -79 135 -79 151 0 8 -6 26 -14 41 -25
47 -65 241 -77 368 -11 120 -8 524 3 536 4 3 23 -3 45 -14 59 -30 145 -45 189
-33 36 10 39 9 73 -28 42 -45 108 -81 149 -81 45 0 115 35 158 79 l38 40 24
-22 c35 -33 134 -32 182 3 58 42 106 99 136 160 23 47 34 59 54 60 14 1 34 5
45 10 35 15 43 11 56 -27z m723 -255 c61 -61 122 -97 199 -118 l61 -17 22 -59
c27 -69 29 -94 10 -94 -7 0 -42 -13 -77 -29 -251 -114 -393 -378 -335 -625
l14 -58 -97 7 c-184 12 -471 -20 -711 -79 -64 -16 -189 -59 -262 -90 -21 -9
-38 -13 -38 -9 0 8 77 122 146 216 30 40 62 83 71 96 38 53 249 310 316 386
39 44 185 194 326 334 l255 254 26 -33 c14 -19 47 -55 74 -82z m1439 -370 c-9
-53 -25 -63 -53 -33 -13 14 -22 26 -19 27 34 21 65 38 71 38 4 0 5 -15 1 -32z
m-79 -85 c29 -37 36 -53 31 -73 -14 -54 -67 -81 -80 -40 -3 11 -25 35 -47 55
-23 19 -37 35 -32 35 6 0 28 16 50 35 21 19 40 35 40 35 1 0 18 -21 38 -47z
m-584 -339 c22 -9 40 -19 40 -23 0 -3 -12 -15 -26 -26 -15 -11 -53 -46 -85
-77 -32 -32 -62 -58 -67 -58 -5 0 -58 -9 -117 -20 -60 -10 -111 -17 -113 -15
-7 7 27 86 49 114 78 99 218 145 319 105z m-859 -283 c33 -32 31 -54 -10 -82
-42 -29 -81 -101 -81 -149 0 -41 42 -132 72 -156 53 -41 186 -94 239 -94 19 0
21 -4 15 -32 -18 -96 -18 -121 0 -173 29 -88 132 -180 220 -199 17 -4 46 -18
65 -32 18 -13 38 -24 43 -24 6 1 -1 8 -16 16 -39 20 -35 23 15 12 23 -5 67 -8
99 -5 l56 5 -19 -42 c-16 -35 -16 -42 -4 -52 12 -9 11 -14 -10 -34 -27 -25
-23 -26 -170 18 -255 77 -507 128 -815 168 -174 22 -589 30 -775 15 -146 -12
-412 -52 -467 -71 -23 -7 -28 -6 -28 6 0 40 227 503 251 512 5 2 9 7 9 12 0
10 58 109 107 185 35 53 30 50 208 101 123 35 350 81 465 94 263 30 502 30
531 1z m589 -45 c0 -14 -5 -28 -10 -31 -6 -4 -70 -22 -143 -40 -73 -18 -154
-44 -181 -58 -51 -27 -76 -26 -76 2 0 17 59 58 125 86 66 28 197 62 243 64 38
1 42 -1 42 -23z m4306 -32 c63 -23 110 -56 152 -108 20 -25 31 -114 22 -172
-5 -32 -36 -105 -79 -190 -56 -108 -71 -147 -71 -181 0 -91 72 -172 204 -230
123 -55 151 -91 135 -176 -10 -57 -21 -78 -71 -142 -77 -98 -150 -116 -289
-74 -65 20 -71 20 -94 5 -36 -24 -50 -60 -64 -161 -25 -184 -33 -219 -56 -265
-23 -45 -66 -90 -87 -90 -5 0 4 11 20 25 55 46 64 89 63 290 -1 158 1 184 18
215 26 49 63 58 148 35 89 -24 177 -30 216 -15 75 29 98 42 126 77 34 41 47
88 37 130 -7 26 -52 76 -91 101 -87 54 -115 71 -134 77 -11 3 -21 11 -21 16 0
5 -6 9 -13 9 -15 0 -72 53 -95 88 -8 13 -15 45 -15 75 0 54 21 107 84 217 65
112 86 239 53 318 -22 54 -61 90 -129 123 -75 36 -62 37 31 3z m-4771 -94 c25
-28 10 -85 -24 -85 -33 0 -58 46 -43 79 14 31 42 33 67 6z m2811 -164 c-14
-19 -26 -38 -26 -42 0 -12 -91 -117 -154 -177 -55 -52 -215 -167 -232 -167 -4
0 31 28 77 62 111 83 225 193 295 284 31 41 59 74 62 74 2 0 -7 -15 -22 -34z
m-2462 -281 c168 13 171 13 174 -13 3 -18 -5 -26 -41 -42 -68 -30 -126 -35
-185 -16 -54 18 -66 28 -77 64 -6 22 -5 23 16 12 16 -9 49 -10 113 -5z m2031
-115 c-3 -5 -12 -10 -18 -10 -7 0 -6 4 3 10 19 12 23 12 15 0z m-265 -134 c0
-2 -9 -6 -20 -9 -11 -3 -18 -1 -14 4 5 9 34 13 34 5z m-110 -42 c-95 -37 -235
-71 -315 -78 -69 -5 -69 -5 -15 5 90 15 269 60 319 80 25 10 53 18 61 18 8 0
-14 -11 -50 -25z m-2615 -24 c129 -11 442 -54 515 -70 25 -5 113 -24 195 -40
83 -17 202 -43 265 -59 l114 -27 -3 -45 c-2 -39 3 -53 31 -90 19 -24 48 -53
66 -64 26 -16 31 -25 28 -45 -6 -37 -45 -229 -56 -280 -37 -167 -47 -664 -17
-860 18 -123 55 -297 66 -319 5 -9 14 -41 21 -71 7 -30 17 -62 21 -70 5 -8 20
-46 35 -85 58 -151 171 -337 262 -430 50 -52 67 -66 142 -115 l45 -30 -175 1
c-408 1 -1017 58 -1375 128 -546 107 -935 315 -1166 625 -66 87 -152 256 -193
376 -30 89 -81 309 -72 317 1 2 31 -11 66 -28 43 -21 98 -37 174 -50 61 -10
179 -30 261 -44 153 -27 356 -58 500 -75 135 -17 598 -24 725 -11 134 13 321
51 400 80 l55 21 -45 -5 c-411 -45 -450 -47 -760 -47 -304 0 -602 20 -790 52
-244 42 -450 94 -556 141 l-42 19 -7 137 c-9 157 -1 355 20 493 15 103 50 270
64 310 5 14 21 66 37 115 15 50 31 95 36 101 13 18 210 43 443 58 103 6 544
-3 670 -14z m1533 -48 c6 -38 -16 -78 -69 -127 -62 -58 -119 -84 -195 -87 -53
-3 -59 -1 -59 17 0 14 9 21 32 26 48 10 79 33 166 121 58 60 83 79 100 76 14
-2 23 -11 25 -26z m3306 -554 c8 -13 17 -58 20 -103 l5 -80 -12 75 c-11 71
-13 75 -40 78 -38 5 -86 -28 -148 -99 -62 -72 -119 -107 -185 -114 l-49 -5 50
13 c77 20 112 43 153 98 76 104 133 159 163 159 19 0 34 -8 43 -22z m-6285
-165 c-35 -155 -16 -490 37 -672 31 -107 66 -206 90 -259 13 -29 24 -55 24
-58 0 -3 19 -38 41 -77 50 -87 118 -180 182 -252 85 -95 247 -215 290 -215 9
0 48 -21 87 -47 56 -37 67 -49 55 -56 -25 -14 -236 -55 -342 -67 -87 -9 -520
-29 -645 -30 l-47 0 24 26 c37 39 35 43 -36 96 -77 57 -185 96 -299 107 l-65
6 75 22 c72 21 190 47 295 63 85 14 214 12 243 -5 39 -21 153 -71 182 -80 14
-4 30 -11 35 -15 16 -11 107 -40 127 -40 14 0 19 6 16 21 -3 25 -7 27 -108 70
-232 98 -379 184 -478 279 -95 91 -159 197 -188 311 -22 86 -14 258 16 349 59
181 176 365 354 557 27 29 50 53 51 53 2 0 -6 -39 -16 -87z m-908 -1503 c25
-14 24 -36 -1 -50 -10 -6 -56 -17 -101 -26 -44 -8 -89 -19 -98 -24 -76 -40
-131 -61 -147 -58 -24 5 -20 35 9 59 21 17 166 93 197 103 28 9 121 6 141 -4z
m403 -110 c16 -16 18 -24 10 -38 -9 -13 -32 -19 -104 -24 -116 -9 -190 -33
-304 -97 -89 -50 -116 -55 -116 -21 0 34 212 180 262 180 8 0 18 4 24 9 14 14
62 20 138 16 54 -3 74 -9 90 -25z m4106 -310 c0 -5 -23 -10 -51 -10 -31 0 -48
4 -44 10 3 6 26 10 51 10 24 0 44 -4 44 -10z m-64 -175 c-87 -44 -113 -82 -79
-115 28 -25 218 -65 408 -86 326 -34 586 5 831 126 110 54 134 61 134 36 0
-53 -269 -174 -540 -242 -177 -45 -365 -82 -579 -115 -35 -5 -65 -8 -65 -7 -1
2 -13 27 -26 57 -31 67 -72 110 -132 139 -55 27 -154 38 -227 24 -50 -9 -58
-8 -90 14 -20 13 -51 28 -68 35 -39 13 -35 25 9 35 18 3 39 10 48 15 22 12
383 107 410 108 8 1 -7 -10 -34 -24z m-651 -245 c0 -22 -6 -26 -50 -34 -54 -9
-129 -32 -213 -65 -72 -29 -102 -28 -102 3 0 19 10 28 48 44 26 11 58 23 72
27 14 4 30 11 36 16 20 16 119 38 164 36 41 -2 45 -4 45 -27z m503 -39 c8 -5
12 -16 10 -26 -2 -15 -29 -24 -133 -45 -134 -28 -256 -66 -384 -119 -74 -31
-100 -30 -88 3 11 29 315 169 412 189 37 8 170 7 183 -2z"/>
<path d="M1695 9570 c-140 -68 -283 -247 -367 -460 -47 -119 -46 -163 2 -76
l24 44 76 -1 c96 -1 151 23 215 95 72 80 88 125 91 247 2 89 5 106 21 114 28
16 43 34 43 51 0 24 -37 19 -105 -14z"/>
<path d="M10505 6726 c-26 -62 -13 -132 30 -160 34 -23 38 -20 19 15 -11 23
-15 51 -12 102 4 81 -13 101 -37 43z"/>
<path d="M8061 2302 c-7 -14 -4 -29 15 -61 37 -66 64 -190 64 -295 0 -77 -18
-198 -57 -398 -6 -32 25 -55 49 -35 28 23 70 231 76 374 7 186 -15 281 -90
391 -32 46 -43 51 -57 24z"/>
<path d="M5820 9783 c0 -33 -38 -81 -74 -94 -19 -7 -39 -22 -45 -33 -35 -68
-81 -273 -81 -362 0 -65 39 -105 102 -106 82 -1 108 37 158 230 21 81 46 176
56 212 20 74 16 103 -21 143 -31 33 -95 39 -95 10z"/>
<path d="M4859 6057 c-120 -44 -208 -121 -257 -227 -35 -75 -37 -196 -5 -255
50 -93 135 -150 239 -161 57 -6 159 8 193 27 9 4 33 16 54 25 21 9 60 37 87
61 194 174 184 414 -22 519 -77 40 -197 44 -289 11z m234 -68 c43 -11 112 -75
128 -117 6 -15 11 -50 10 -79 -1 -102 -83 -211 -201 -267 -57 -27 -76 -31
-150 -31 -67 0 -94 4 -125 21 -98 51 -134 180 -81 288 41 85 123 152 226 189
27 10 154 7 193 -4z"/>
<path d="M4888 5872 c-50 -23 -98 -68 -98 -92 0 -24 34 -60 55 -60 18 0 127
59 137 74 14 20 8 56 -12 76 -24 24 -33 24 -82 2z"/>
</g>
</svg>
